<svg id="call-24px" xmlns="http://www.w3.org/2000/svg" width="36.618" height="36.618" viewBox="0 0 36.618 36.618">
  <defs>
    <style>
      .cls-1 {
        fill: none;
      }

      .cls-2 {
        fill: #d3b04f;
      }
    </style>
  </defs>
  <path id="Path_231" data-name="Path 231" class="cls-1" d="M0,0H36.618V36.618H0Z"/>
  <path id="Path_232" data-name="Path 232" class="cls-2" d="M28.953,21.889a17.459,17.459,0,0,1-5.386-.854,1.491,1.491,0,0,0-1.541.366l-2.4,3.006A23.166,23.166,0,0,1,9.118,13.985l2.975-2.533A1.557,1.557,0,0,0,12.46,9.9a17.016,17.016,0,0,1-.854-5.386A1.524,1.524,0,0,0,10.095,3H4.816C3.992,3,3,3.366,3,4.51A26.169,26.169,0,0,0,28.953,30.463a1.6,1.6,0,0,0,1.51-1.8V23.4A1.524,1.524,0,0,0,28.953,21.889Z" transform="translate(1.577 1.577)"/>
</svg>
