<svg xmlns="http://www.w3.org/2000/svg" width="123.776" height="123.776" viewBox="0 0 123.776 123.776"><defs><style>.a{fill:none;}.b{fill:#d3b04f;}</style></defs><path class="a" d="M0,0H123.776V123.776H0Z"/><path class="b" d="M94.832,2H12.315A10.279,10.279,0,0,0,2,12.315V69.046A10.279,10.279,0,0,0,12.315,79.36H32.944v25.787L53.573,94.832,74.2,105.147V79.36H94.832a10.279,10.279,0,0,0,10.315-10.315V12.315A10.279,10.279,0,0,0,94.832,2Zm0,67.046H12.315V58.731H94.832Zm0-25.787H12.315V12.315H94.832Z" transform="translate(8.315 8.315)"/></svg>