<svg xmlns="http://www.w3.org/2000/svg" width="124.479" height="124.479" viewBox="0 0 124.479 124.479"><defs><style>.a{fill:none;}.b{fill:#d3b04f;}</style></defs><path class="a" d="M0,0H124.479V124.479H0Z"/><g transform="translate(10.373 20.746)"><path class="b" d="M95.359,4H12.373A10.293,10.293,0,0,0,2.052,14.373L2,76.613A10.337,10.337,0,0,0,12.373,86.986H38.306V76.613H12.373V45.493h93.359V14.373A10.337,10.337,0,0,0,95.359,4Zm0,20.746H12.373V14.373H95.359Zm-26.3,57.934L54.385,68l-7.313,7.313L69.063,97.359,105.732,60.69l-7.313-7.313Z" transform="translate(-2 -4)"/></g></svg>