<svg xmlns="http://www.w3.org/2000/svg" width="17.5" height="17.5" viewBox="0 0 19.5 19.5"><defs><style>.a{fill:#167ee6;}.b{fill:#12b347;}.c{fill:#0f993e;}.d{fill:#ffd500;}.e{fill:#ff4b26;}.f{fill:#d93f21;}</style></defs><path class="a" d="M275.721,211.479h-7.954a.636.636,0,0,0-.636.636v2.541a.636.636,0,0,0,.636.636h4.479a5.98,5.98,0,0,1-2.574,3.016l1.91,3.306a9.56,9.56,0,0,0,4.875-8.361,6.444,6.444,0,0,0-.11-1.249A.639.639,0,0,0,275.721,211.479Z" transform="translate(-256.957 -203.425)"/><path class="b" d="M42.85,336.817a5.934,5.934,0,0,1-5.133-2.97l-3.306,1.906a9.742,9.742,0,0,0,13.314,3.573v0l-1.91-3.306A5.89,5.89,0,0,1,42.85,336.817Z" transform="translate(-33.1 -321.132)"/><path class="c" d="M260.875,394.09v0l-1.91-3.306a5.891,5.891,0,0,1-2.965.8V395.4A9.734,9.734,0,0,0,260.875,394.09Z" transform="translate(-246.25 -375.896)"/><path class="d" d="M3.815,132.989a5.891,5.891,0,0,1,.8-2.965l-3.306-1.906a9.705,9.705,0,0,0,0,9.741l3.306-1.906A5.891,5.891,0,0,1,3.815,132.989Z" transform="translate(0 -123.239)"/><path class="e" d="M42.85,3.815a5.907,5.907,0,0,1,3.768,1.353.633.633,0,0,0,.852-.038l1.8-1.8a.641.641,0,0,0-.037-.937A9.729,9.729,0,0,0,34.411,4.88l3.306,1.906A5.934,5.934,0,0,1,42.85,3.815Z" transform="translate(-33.1)"/><path class="f" d="M259.768,5.168a.633.633,0,0,0,.852-.038l1.8-1.8a.641.641,0,0,0-.037-.937A9.721,9.721,0,0,0,256,0V3.815A5.908,5.908,0,0,1,259.768,5.168Z" transform="translate(-246.25)"/></svg>