<svg id="Instagram" xmlns="http://www.w3.org/2000/svg" width="27.46" height="27.46" viewBox="0 0 27.46 27.46">
  <defs>
    <style>
      .cls-1 {
        fill: #d3b04f;
        fill-rule: evenodd;
      }
    </style>
  </defs>
  <path id="Path_3" data-name="Path 3" class="cls-1" d="M13.73,2.441a42.1,42.1,0,0,1,5.492.153,7.076,7.076,0,0,1,2.593.458,5.358,5.358,0,0,1,2.593,2.593,7.076,7.076,0,0,1,.458,2.593c0,1.373.153,1.831.153,5.492a42.1,42.1,0,0,1-.153,5.492,7.076,7.076,0,0,1-.458,2.593,5.358,5.358,0,0,1-2.593,2.593,7.076,7.076,0,0,1-2.593.458c-1.373,0-1.831.153-5.492.153a42.1,42.1,0,0,1-5.492-.153,7.076,7.076,0,0,1-2.593-.458,5.358,5.358,0,0,1-2.593-2.593,7.076,7.076,0,0,1-.458-2.593c0-1.373-.153-1.831-.153-5.492a42.1,42.1,0,0,1,.153-5.492,7.076,7.076,0,0,1,.458-2.593A5.479,5.479,0,0,1,4.119,4.119,2.579,2.579,0,0,1,5.644,3.051a7.076,7.076,0,0,1,2.593-.458,42.1,42.1,0,0,1,5.492-.153M13.73,0A45.075,45.075,0,0,0,8.085.153a9.418,9.418,0,0,0-3.356.61A5.972,5.972,0,0,0,2.288,2.288,5.972,5.972,0,0,0,.763,4.729a6.951,6.951,0,0,0-.61,3.356A45.075,45.075,0,0,0,0,13.73a45.075,45.075,0,0,0,.153,5.644,9.418,9.418,0,0,0,.61,3.356,5.972,5.972,0,0,0,1.526,2.441A5.972,5.972,0,0,0,4.729,26.7a9.418,9.418,0,0,0,3.356.61,45.075,45.075,0,0,0,5.644.153,45.075,45.075,0,0,0,5.644-.153,9.418,9.418,0,0,0,3.356-.61A6.4,6.4,0,0,0,26.7,22.73a9.418,9.418,0,0,0,.61-3.356c0-1.526.153-1.983.153-5.644a45.075,45.075,0,0,0-.153-5.644,9.418,9.418,0,0,0-.61-3.356,5.972,5.972,0,0,0-1.526-2.441A5.972,5.972,0,0,0,22.73.763a9.418,9.418,0,0,0-3.356-.61A45.075,45.075,0,0,0,13.73,0m0,6.712A6.9,6.9,0,0,0,6.712,13.73,7.017,7.017,0,1,0,13.73,6.712m0,11.594A4.5,4.5,0,0,1,9.153,13.73,4.5,4.5,0,0,1,13.73,9.153a4.5,4.5,0,0,1,4.577,4.577,4.5,4.5,0,0,1-4.577,4.577M21.052,4.729A1.678,1.678,0,1,0,22.73,6.407a1.693,1.693,0,0,0-1.678-1.678"/>
</svg>
