<svg xmlns="http://www.w3.org/2000/svg" width="40" height="40" viewBox="0 0 40 40"><defs><style>.a{fill:none;}.b{fill:#d3b04f;}</style></defs><g transform="translate(0 -0.466)"><rect class="a" width="40" height="40" transform="translate(0 0.466)"/><g transform="translate(3.161 3.356)"><path class="b" d="M32.31,2H5.368A3.492,3.492,0,0,0,2,5.368v5.068a3.4,3.4,0,0,0,1.684,2.846V32.31a3.618,3.618,0,0,0,3.368,3.368H30.626a3.618,3.618,0,0,0,3.368-3.368V13.282a3.4,3.4,0,0,0,1.684-2.846V5.368A3.492,3.492,0,0,0,32.31,2ZM23.89,22.207h-10.1V18.839h10.1ZM32.31,10.419H5.368V5.368H32.31Z" transform="translate(-2 -2)"/></g></g></svg>