<svg xmlns="http://www.w3.org/2000/svg" width="177.913" height="133.816" viewBox="0 0 177.913 133.816"><defs><style>.a{fill:none;stroke:#fff;stroke-width:1.5px;opacity:0.7;}</style></defs><path class="a" d="M170.908,109.588H121.289V8.513a5.513,5.513,0,1,0-11.026,0v64.32h-7.557L85.41,23.84A20.236,20.236,0,0,0,66.349,10.351H42.267a5.515,5.515,0,0,0-5.513,5.513V54.456H20.215A20.232,20.232,0,0,0,0,74.671V107.75a12.878,12.878,0,0,0,12.864,12.864h2.213a18.373,18.373,0,0,0,36,0H66.525a18.373,18.373,0,0,0,36,0H170.9a5.513,5.513,0,0,0,.007-11.026ZM47.781,21.377H66.349a9.2,9.2,0,0,1,8.667,6.131l16,45.325H56.969a9.2,9.2,0,0,1-9.189-9.189V21.377Zm-14.7,102.912a7.351,7.351,0,1,1,7.351-7.351A7.358,7.358,0,0,1,33.079,124.289Zm51.456,0a7.351,7.351,0,1,1,7.351-7.351A7.358,7.358,0,0,1,84.535,124.289Z" transform="translate(0.75 -2.25)"/></svg>