<svg xmlns="http://www.w3.org/2000/svg" width="44" height="44" viewBox="0 0 44 44"><defs><style>.a{fill:none;}.b{fill:#d3b04f;}</style></defs><path class="a" d="M0,0H44V44H0Z"/><path class="b" d="M30.5,29.5H8.5V25.833h22Zm0-7.333H8.5V18.5h22Zm0-7.333H8.5V11.167h22ZM3,38.667l2.75-2.75,2.75,2.75,2.75-2.75L14,38.667l2.75-2.75,2.75,2.75,2.75-2.75L25,38.667l2.75-2.75,2.75,2.75,2.75-2.75L36,38.667V2L33.25,4.75,30.5,2,27.75,4.75,25,2,22.25,4.75,19.5,2,16.75,4.75,14,2,11.25,4.75,8.5,2,5.75,4.75,3,2Z" transform="translate(2.5 1.667)"/></svg>