<svg xmlns="http://www.w3.org/2000/svg" width="34" height="34" viewBox="0 0 34 34"><defs><style>.a{fill:none;}.b{fill:#d3b04f;}</style></defs><path class="a" d="M0,0H34V34H0Z"/><path class="b" d="M24.25,23.25h-17V20.417h17Zm0-5.667h-17V14.75h17Zm0-5.667h-17V9.083h17ZM3,30.333l2.125-2.125L7.25,30.333l2.125-2.125L11.5,30.333l2.125-2.125,2.125,2.125,2.125-2.125L20,30.333l2.125-2.125,2.125,2.125,2.125-2.125L28.5,30.333V2L26.375,4.125,24.25,2,22.125,4.125,20,2,17.875,4.125,15.75,2,13.625,4.125,11.5,2,9.375,4.125,7.25,2,5.125,4.125,3,2Z" transform="translate(1.25 0.833)"/></svg>