<svg xmlns="http://www.w3.org/2000/svg" width="38" height="38" viewBox="0 0 38 38"><defs><style>.a{fill:none;}.b{fill:#d3b04f;}</style></defs><path class="a" d="M0,0H38V38H0Z"/><path class="b" d="M32.667,5V27.167h3.167V5ZM26.333,27.167H29.5V5H26.333ZM21.583,5h-19A1.588,1.588,0,0,0,1,6.583v19a1.588,1.588,0,0,0,1.583,1.583h19a1.588,1.588,0,0,0,1.583-1.583v-19A1.588,1.588,0,0,0,21.583,5Zm-9.5,4.354a3.563,3.563,0,1,1-3.562,3.563A3.568,3.568,0,0,1,12.083,9.354ZM19.208,24H4.958V22.813c0-2.375,4.75-3.562,7.125-3.562s7.125,1.188,7.125,3.563Z" transform="translate(0.583 2.917)"/></svg>