<svg id="Twitter" xmlns="http://www.w3.org/2000/svg" width="27.46" height="22.273" viewBox="0 0 27.46 22.273">
  <defs>
    <style>
      .cls-1 {
        fill: #d3b04f;
        fill-rule: evenodd;
      }
    </style>
  </defs>
  <path id="Path_2" data-name="Path 2" class="cls-1" d="M46.7,24.273c10.374,0,16.018-8.543,16.018-16.018V7.492a12.4,12.4,0,0,0,2.746-2.9,12.664,12.664,0,0,1-3.2.915A5.935,5.935,0,0,0,64.7,2.458a13.993,13.993,0,0,1-3.509,1.373A5.448,5.448,0,0,0,57.069,2a5.732,5.732,0,0,0-5.644,5.644,2.974,2.974,0,0,0,.153,1.22,15.772,15.772,0,0,1-11.594-5.95,5.842,5.842,0,0,0-.763,2.9,6.061,6.061,0,0,0,2.441,4.729,5.143,5.143,0,0,1-2.593-.763h0a5.575,5.575,0,0,0,4.577,5.492,4.7,4.7,0,0,1-1.526.153,2.6,2.6,0,0,1-1.068-.153,5.779,5.779,0,0,0,5.339,3.966,11.518,11.518,0,0,1-7.017,2.441A4.223,4.223,0,0,1,38,21.527a14.4,14.4,0,0,0,8.7,2.746" transform="translate(-38 -2)"/>
</svg>
