<?xml version="1.0" standalone="no"?>
<!DOCTYPE svg PUBLIC "-//W3C//DTD SVG 20010904//EN"
 "http://www.w3.org/TR/2001/REC-SVG-20010904/DTD/svg10.dtd">
<svg version="1.0" xmlns="http://www.w3.org/2000/svg"
 width="2000.000000pt" height="2000.000000pt" viewBox="0 0 2000.000000 2000.000000"
 preserveAspectRatio="xMidYMid meet">
<metadata>
Created by potrace 1.16, written by Peter Selinger 2001-2019
</metadata>
<g transform="translate(0.000000,2000.000000) scale(0.100000,-0.100000)"
fill="#000000" stroke="none">
<path d="M4410 15365 l0 -675 1660 0 1660 0 0 -4230 0 -4230 3630 0 3630 0 0
675 0 675 -2955 0 -2955 0 0 4230 0 4230 -2335 0 -2335 0 0 -675z"/>
<path d="M9570 11070 l0 -3010 3010 0 3010 0 0 3010 0 3010 -3010 0 -3010 0 0
-3010z m2176 760 c43 -11 112 -36 153 -56 l73 -36 -7 -142 c-4 -77 -9 -144
-12 -148 -2 -5 -17 -8 -34 -8 -27 0 -33 8 -88 118 -97 193 -124 215 -266 216
-100 1 -163 -20 -219 -72 -99 -93 -86 -280 25 -376 50 -43 92 -66 259 -140
252 -113 365 -222 399 -384 43 -206 -50 -395 -240 -485 -113 -53 -163 -62
-344 -61 -139 1 -173 4 -258 27 -54 14 -124 38 -154 52 l-56 25 7 157 c4 86 9
160 12 165 3 4 19 8 35 8 23 0 32 -6 40 -27 30 -80 104 -219 134 -252 69 -76
211 -109 333 -77 135 34 204 120 203 253 0 150 -48 199 -314 323 -156 72 -249
133 -320 210 -81 87 -101 145 -102 290 0 110 1 118 32 181 60 121 184 211 334
244 99 21 280 19 375 -5z m1059 -579 c169 -440 215 -550 222 -535 5 10 97 261
204 557 l194 537 228 0 228 0 -3 -27 c-2 -20 -11 -29 -37 -38 -19 -6 -44 -24
-55 -39 -21 -27 -21 -37 -21 -660 0 -706 -6 -654 73 -688 33 -15 42 -24 42
-43 l0 -25 -286 0 -285 0 3 26 c2 21 12 30 48 43 29 11 49 26 58 43 9 20 12
152 10 587 l-3 561 -219 -607 c-121 -335 -224 -618 -229 -630 -9 -21 -17 -23
-76 -23 l-66 0 -203 528 c-111 290 -220 572 -242 627 l-40 100 3 -560 c2 -442
5 -565 15 -583 7 -13 33 -32 58 -42 35 -16 44 -24 44 -45 l0 -25 -161 0 -160
0 3 27 c2 20 11 29 37 38 19 6 44 24 55 39 21 27 21 37 21 661 0 609 -1 634
-19 654 -11 12 -37 26 -58 33 -33 10 -38 15 -38 40 l0 28 221 -2 221 -3 213
-554z"/>
<path d="M9407 5734 c-175 -32 -328 -114 -463 -248 -137 -138 -217 -288 -249
-471 -37 -215 2 -425 116 -618 55 -95 201 -241 296 -296 98 -58 203 -97 308
-116 215 -37 425 2 618 116 95 55 241 201 296 296 173 293 173 633 0 926 -55
95 -201 241 -296 296 -193 114 -410 154 -626 115z"/>
<path d="M13157 5734 c-97 -17 -205 -59 -300 -115 -95 -55 -241 -201 -296
-296 -173 -293 -173 -634 0 -926 56 -94 202 -240 296 -296 292 -173 633 -173
926 0 95 55 241 201 296 296 173 293 173 633 0 926 -55 95 -201 241 -296 296
-193 114 -410 154 -626 115z"/>
</g>
</svg>
